<?xml version="1.0" encoding="utf-8"?>
<!-- Uploaded to: SVG Repo, www.svgrepo.com, Generator: SVG Repo Mixer Tools -->
<svg width="800px" height="800px" viewBox="0 0 1024 1024" class="icon"  version="1.1" xmlns="http://www.w3.org/2000/svg"><path d="M188.3 766.5a94.4 135.8 0 1 0 188.8 0 94.4 135.8 0 1 0-188.8 0Z" fill="#FFB89A" /><path d="M931.5 397s0-0.1 0 0c-34.2-82.6-119.3-141-218.8-141-129.7 0-234.9 99.3-234.9 221.9 0 52.1 19.1 100.1 50.9 138 1 14.5 1.8 29.1 1.8 43.6 0 148.5 98.1 269 219.2 269 121 0 219.2-120.4 219.2-269 0-70.1-1.7-214.7-37.4-262.5z m-36.6 347.5c-8.7 25.3-21.1 47.9-36.8 67.1-29.8 36.5-68.3 56.7-108.5 56.7s-78.7-20.1-108.5-56.7c-15.7-19.2-28-41.8-36.8-67.1-9.3-26.9-13.9-55.5-13.9-85.1 0-16.8-1-33.5-2-47.7l-1.3-19.5-12.6-15c-24.1-28.6-36.8-63-36.8-99.3 0-89.3 78.5-161.9 174.9-161.9 36.4 0 71.4 10.3 101 29.7 28.4 18.7 65.5 81.7 65.5 81.7s17.9 27.5 24.7 98.2c4.5 46.5 5 95.9 5 133.8 0.1 29.6-4.6 58.2-13.9 85.1zM377.1 219.9c-51.8 0-93.8 42-93.8 93.8s42 93.8 93.8 93.8 93.8-42 93.8-93.8-42-93.8-93.8-93.8z m0 127.5c-18.6 0-33.8-15.2-33.8-33.8 0-18.6 15.2-33.8 33.8-33.8 18.6 0 33.8 15.2 33.8 33.8 0 18.7-15.1 33.8-33.8 33.8z" fill="#45484C" /><path d="M521.2 206.7m-50.3 0a50.3 50.3 0 1 0 100.6 0 50.3 50.3 0 1 0-100.6 0Z" fill="#45484C" /><path d="M653 156.4m-50.3 0a50.3 50.3 0 1 0 100.6 0 50.3 50.3 0 1 0-100.6 0Z" fill="#45484C" /><path d="M781.9 158.4m-50.3 0a50.3 50.3 0 1 0 100.6 0 50.3 50.3 0 1 0-100.6 0Z" fill="#45484C" /><path d="M909 206.7m-50.3 0a50.3 50.3 0 1 0 100.6 0 50.3 50.3 0 1 0-100.6 0Z" fill="#45484C" /><path d="M263.9 602.7c44.7 0 81 31.5 81 70.3 0 20.9-10.2 35.9-18.7 44.8l-15.9 19.7-0.5 27.2c0.7 7.2 0.6 16.9 0.6 24.7v4.8c0 33.7-27.4 61.2-61.2 61.2-14.9 0-33.3-9.6-48.1-25-15.2-15.9-24.6-35.9-24.6-52.3v-3.2c0-12.7 0-36.2 1-60.2 1.4-33 7.4-57.3 7.4-57.3 3.9-14.7 13.4-28.2 26.8-38 14.8-11 32.8-16.7 52.2-16.7m0-60c-66.4 0-122 42.4-137 99.4-10.9 23-10.4 112.6-10.4 135.9 0 66.9 65.8 137.3 132.7 137.3 66.9 0 121.2-54.3 121.2-121.2 0-9.2 0.3-23-0.8-34.9 22-23 35.4-53.2 35.4-86.3-0.1-71.9-63.2-130.2-141.1-130.2zM444.4 559.9c-26.4 0-47.8 21.4-47.8 47.8s21.4 47.8 47.8 47.8 47.8-21.4 47.8-47.8-21.4-47.8-47.8-47.8zM377.1 494.5c-15.2 0-27.5 12.3-27.5 27.5s12.3 27.5 27.5 27.5 27.5-12.3 27.5-27.5c0-15.3-12.3-27.5-27.5-27.5zM288.1 471.5c-15.2 0-27.5 12.3-27.5 27.5s12.3 27.5 27.5 27.5 27.5-12.3 27.5-27.5-12.4-27.5-27.5-27.5zM188.3 477.9c-15.2 0-27.5 12.3-27.5 27.5s12.3 27.5 27.5 27.5 27.5-12.3 27.5-27.5-12.3-27.5-27.5-27.5zM100.6 538.4c-15.2 0-27.5 12.3-27.5 27.5s12.3 27.5 27.5 27.5 27.5-12.3 27.5-27.5c-0.1-15.2-12.4-27.5-27.5-27.5z" fill="#45484C" /><path d="M670.1 584.6c-41.4 0-80.2-20.3-103.9-54.3-9.5-13.6-6.2-32.3 7.4-41.8 13.6-9.5 32.3-6.2 41.8 7.4 12.5 17.9 33 28.6 54.7 28.6 36.8 0 66.7-29.9 66.7-66.7 0-19.8-8.7-38.4-23.9-51.2-12.7-10.6-14.4-29.6-3.7-42.3s29.6-14.4 42.3-3.7c28.9 24.2 45.4 59.6 45.4 97.2-0.1 70-56.9 126.8-126.8 126.8z" fill="#33CC99" /><path d="M853 556.4c-26 0-49.6-14.5-60.1-36.9-7-15-0.6-32.9 14.4-39.9s32.9-0.6 39.9 14.4c0.3 0.6 2.2 2.4 5.8 2.4 1.2 0 2.3-0.2 3.3-0.6 15.5-5.9 32.8 1.8 38.7 17.3 5.9 15.5-1.8 32.8-17.3 38.7-7.9 3.1-16.2 4.6-24.7 4.6z" fill="#33CC99" /></svg>