<?xml version="1.0" encoding="utf-8"?>
<!-- Uploaded to: SVG Repo, www.svgrepo.com, Generator: SVG Repo Mixer Tools -->
<svg width="800px" height="800px" viewBox="0 0 1024 1024" class="icon"  version="1.1" xmlns="http://www.w3.org/2000/svg"><path d="M570.2 842c-50.6 0-278.7-180-278.7-401.9 0-58.8-2.9-133.1-1-183.9-50.8 3.2-91.4 45.7-91.4 97.3v272.1c37.4 194.7 137.5 334 255.2 334 69.5 0 132.9-48.6 180.9-128.5-20.8 7.1-42.6 10.9-65 10.9z" fill="#FFB89A" /><path d="M926.1 191.8C900.5 74.1 817.9 62.1 704.9 62.1c-29.1 0-60.3 0.8-93 0.8-36 0-70.5-1.1-102.5-1.1-109.7 0-189.8 12.5-201.3 123.7-20.4 198.3 30 617.1 306.1 617.1S939 414.3 926.1 191.8z m-76.9 268.5c-9.5 47.9-22.3 90.8-38.1 127.7-16.8 39.2-37 71.4-60 95.8-37.3 39.5-82.1 58.7-137 58.7-53.4 0-97.6-20.1-134.9-61.6-45.5-50.5-79.8-131.5-99-234.2-15.6-83.5-20.3-178.9-12.4-255.2 1.8-17.3 5.7-30.7 11.6-39.8 4.4-6.8 10.1-11.7 18.7-15.8 25.8-12.5 70.8-14.2 111.4-14.2 15 0 30.7 0.2 47.3 0.5 17.8 0.3 36.2 0.6 55.2 0.6 17.2 0 33.9-0.2 50-0.4 15.1-0.2 29.3-0.4 43.1-0.4 44.5 0 89.5 1.8 118 15.1 15.9 7.4 33.4 20.8 43.6 63 2.6 53.3 3.6 153.5-17.5 260.2z" fill="#4E5155" /><path d="M532 841.7c-32.5 22.3-70.6 33.7-113.2 33.7-29.7 0-57.3-6-82.1-17.7-23.2-11-44.7-27.4-63.9-48.7-46-50.9-80.3-131.3-99.2-232.4-15.1-80.6-19.6-172.9-12-246.8 3-29.5 12-50.2 27.5-63.2 14.2-12 35.1-19.2 65.8-22.9 16.5-2 28.2-16.9 26.3-33.3-2-16.5-16.9-28.2-33.3-26.3-42.9 5.1-73.8 16.7-97.4 36.5-27.9 23.5-43.8 57.2-48.5 103-8.2 79.3-3.4 178.1 12.7 264 9.7 51.9 23.4 99.4 40.6 141.2 19.8 48.1 44.4 88.6 73 120.4 51.6 57.2 115.7 86.2 190.6 86.2 55 0 104.5-14.9 147.2-44.2 13.7-9.4 17.1-28.1 7.7-41.7-9.4-13.7-28.1-17.2-41.8-7.8z" fill="#4E5155" /><path d="M519.7 248.5c-16.6 0-30 13.4-30 30v91.3c0 16.6 13.4 30 30 30s30-13.4 30-30v-91.3c0-16.6-13.5-30-30-30zM299.5 385.5c0-16.6-13.4-30-30-30s-30 13.4-30 30v91.3c0 16.6 13.4 30 30 30s30-13.4 30-30v-91.3zM754.6 248.5c-16.6 0-30 13.4-30 30v91.3c0 16.6 13.4 30 30 30s30-13.4 30-30v-91.3c0-16.6-13.4-30-30-30zM716.7 554.5c0-16.6-13.4-30-30-30H551v30c0 58.5 38.1 123.7 92.8 123.7 22.9 0 45-11.9 62.2-33.6 10.3-13 8.1-31.9-4.9-42.1-13-10.3-31.9-8.1-42.1 4.9-5.3 6.7-11.1 10.9-15.1 10.9-4.3 0-11.9-5.1-19.1-16.4-3.3-5.3-6.2-11.2-8.4-17.4h70.4c16.4 0 29.9-13.4 29.9-30zM401.6 704c-25.4 0-46.1-24.2-46.1-53.9 0-16.6-13.4-30-30-30s-30 13.4-30 30c0 62.8 47.6 113.9 106.1 113.9 16.6 0 30-13.4 30-30s-13.5-30-30-30z" fill="#33CC99" /></svg>